# xmcd CD database file
#
# Track frame offsets:
#	150
#	26112
#	43895
#
# Disc length: 858 seconds
#
# Revision: 0
# Processed by: cddbd v1.5PL3 Copyright (c) Steve Scherf et al.
# Submitted via: CDex 1.50beta10
#
DISCID=23035803
DTITLE=Crystal Key loves M-FLO - I Like It
DYEAR=2003
DGENRE=JPop
TTITLE0=I Like It
TTITLE1=Over The Rainbow
TTITLE2=Reeeplay! (By DJ Hasebe)
EXTD=YEAR: 2003
EXTT0=
EXTT1=
EXTT2=
PLAYORDER=
